<svg xmlns="http://www.w3.org/2000/svg" viewBox="0 0 130 150">
    <path fill="#0077CA" d="M 0 150 0 10 S 0 0 10 0 L 120 0 S 130 0 130 10 L 130 140 S 130 150 120 150 Z"/>
    <path fill="#2A2A2A" d="M 0 150 0 140 10 140 10 130 20 130 20 120 30 120 30 100 20 100 20 60 30 60 30 30 40 30 40 20 50 20 50 10 100 10 100 20 110 20 110 30 120 30 120 110 110 110 110 120 100 120 100 130 90 130 90 140 100 140 100 150 Z"/>
    <path fill="#FFF" d="M 10 150 10 140 20 140 20 130 30 130 30 120 40 120 40 100 30 100 30 70 40 70 40 30 50 30 50 20 100 20 100 30 110 30 110 50 90 50 90 60 100 60 100 70 110 70 110 110 100 110 100 100 70 100 70 110 100 110 100 120 90 120 90 130 60 130 60 120 50 120 50 130 60 130 60 140 90 140 90 150 Z"/>
    <path fill="#2A2A2A" d="M 50 60 50 50 70 50 70 70 60 70 60 60 Z"/>
</svg>
